# xmcd CD database file
#
# Track frame offsets:
#	150
#	20644
#	43828
#
# Disc length: 905 seconds
#
# Revision: 0
# Processed by: cddbd v1.5.1PL0 Copyright (c) Steve Scherf et al.
# Submitted via: CDex 1.51
#
DISCID=21038703
DTITLE=立道　聡子 - 宝物
DYEAR=2005
DGENRE=Vocal
TTITLE0=宝物
TTITLE1=A Little Dreamer
TTITLE2=ミラー
EXTD=YEAR: 2005
EXTT0=
EXTT1=
EXTT2=
PLAYORDER=
